<svg xmlns="http://www.w3.org/2000/svg" xml:space="preserve" width="2000" height="397" data-id="lg_4wMsZqUuwTe6nIAQdl" data-version="1"><g data-padding="20"><g transform="translate(389.988 314.671)scale(.95465)"><linearGradient id="a" x1="0" x2="1" y1="0" y2="0" gradientUnits="objectBoundingBox"><stop offset="0%" stop-color="#6ee2f5"/><stop offset="100%" stop-color="#6454f0"/></linearGradient><path fill="url(#a)" stroke="transparent" d="M841.02 2.25q4.57-2.45 9.83-2.45 7.37 0 13.69 4.21 2.46 1.75 4.56 3.51 2.11 1.75 3.87 3.16 2.1 1.4 5.61 2.8 3.51 1.41 5.97 2.81 10.53 5.62 30.89 17.55l31.24 17.9q27.02 15.45 47.38 26.68l22.46 11.93q20.01 10.18 33.88 18.26 13.86 8.07 25.79 18.25 8.78 8.07 13.69 15.79 4.92 7.72 4.92 16.85l-.35 3.86q-3.51 20.36-21.41 38.96-13.69 14.74-32.12 25.27t-42.3 20.01q-40.71 15.45-93.36 27.73-5.62 1.4-8.08 1.76l-14.39 3.51-20.35 3.86q-9.48 1.75-23.17 3.51-1.4.35-5.09 1.23-3.69.87-6.49.87-1.41 0-4.22-.7-7.37-1.4-7.37-8.77 0-4.92 3.34-11.41 3.33-6.5 6.84-10.36 10.53-12.28 30.89-16.84 4.21-1.06 5.09-2.29.88-1.22 1.23-5.79 0-6.32.7-18.95 2.81-33.35 3.51-50.9 1.4-16.84 1.76-25.27.35-1.75.7-4.74.35-2.98.35-7.19 0-4.57-1.41-8.43-7.37-17.9-23.51-44.22 0 .35.52.88.53.52.88 1.93-4.56-8.08-15.09-23.52-1.41-1.76-3.16-4.56-1.76-2.81-3.16-4.57-1.05-1.05-2.81-2.98-1.75-1.93-2.81-3.34-1.75-3.51-1.75-6.31 0-7.73 7.55-16.15 7.54-8.42 15.26-13.34m85.65 211.66-3.86 14.39q31.94-7.02 69.14-18.61 20.01-6.31 32.65-11.58 12.63-5.26 23.87-13.69-10.18-12.28-22.99-21.23-12.82-8.95-36.33-22.99l-26.33-15.8-42.47-26.32q12.99 36.85 12.99 69.14 0 23.52-6.67 46.69" transform="translate(-397.54 -319.7)"/><path fill="url(#a)" stroke="transparent" d="M1243.27 73.86q5.97 0 9.83 2.8 3.86 2.81 3.86 6.67 0 3.16-3.16 7.02.7-.7-17.2 19.31-37.91 42.12-55.46 64.58 23.52 35.8 53.36 70.55 2.45 2.46 2.45 5.62 0 7.02-10.7 13.51-10.71 6.5-20.89 6.5-7.02 0-10.53-3.86-24.22-27.73-42.12-53.36-13.34 18.96-39.31 57.57-2.81 3.86-10.88 6.49t-16.15 2.63q-5.96 0-9.82-1.58-3.87-1.58-3.87-4.73 0-1.76 2.11-4.92 34.75-51.95 59.32-83.89-25.27-40.36-42.82-82.83-.7-2.81-.7-3.86 0-7.38 10.17-13.52 10.18-6.14 20.36-6.14 11.23 0 14.04 7.37 12.29 29.48 29.14 60.37 28.78-34.4 54.4-60.72 4.56-4.91 11.41-8.25 6.84-3.33 13.16-3.33" transform="translate(-397.54 -319.69)"/><rect width="419.818" height="396.63" x="429.082" y="-320.005" fill="none" rx="0" ry="0" transform="translate(2.96)"/></g><path fill="transparent" stroke="transparent" d="M779.5 0h441v397h-441z"/></g></svg>